<svg xmlns="http://www.w3.org/2000/svg" viewBox="0 0 170 82" role="img" aria-label="Sahli & Partner">
  
  <g fill="#ffffff" transform="translate(86 28) scale(0.8)">
    <path d="M0 0 C 30 -9 56 -22 76 -33 C 58 -15 32 -4 3 4 Z"/>
    <path d="M0 7 C 27 0 50 -9 68 -19 C 52 -5 29 4 3 11 Z"/>
    <path d="M0 14 C 24 9 45 3 60 -4 C 47 6 26 13 3 18 Z"/>
    <path d="M0 21 C 21 17 39 13 51 7 C 41 16 23 21 3 24 Z"/>
  </g>
  <text x="6" y="70" font-family="'Playfair Display', Georgia, serif" font-size="80" font-weight="800" letter-spacing="-5" fill="#ffffff">SP</text>
</svg>